<mxfile host="app.diagrams.net" agent="Mozilla/5.0 (Windows NT 10.0; Win64; x64) AppleWebKit/537.36 (KHTML, like Gecko) Chrome/131.0.0.0 Safari/537.36" version="25.0.1">
  <diagram id="C5RBs43oDa-KdzZeNtuy" name="Page-1">
    <mxGraphModel dx="794" dy="392" grid="1" gridSize="13" guides="1" tooltips="1" connect="1" arrows="1" fold="1" page="1" pageScale="1" pageWidth="827" pageHeight="1169" math="0" shadow="0">
      <root>
        <mxCell id="WIyWlLk6GJQsqaUBKTNV-0" />
        <mxCell id="WIyWlLk6GJQsqaUBKTNV-1" parent="WIyWlLk6GJQsqaUBKTNV-0" />
        <mxCell id="bkGXuq_RTNaCs4NR--fi-21" value="START" style="rounded=1;whiteSpace=wrap;html=1;shadow=1;glass=0;sketch=1;jiggle=2;curveFitting=1;strokeColor=#82b366;strokeWidth=1;align=center;verticalAlign=middle;fontFamily=Verdana;fontSize=13;fontColor=default;labelBackgroundColor=none;fillColor=#d5e8d4;" vertex="1" parent="WIyWlLk6GJQsqaUBKTNV-1">
          <mxGeometry x="358" y="58" width="120" height="60" as="geometry" />
        </mxCell>
        <mxCell id="bkGXuq_RTNaCs4NR--fi-35" value="" style="edgeStyle=none;rounded=0;orthogonalLoop=1;jettySize=auto;html=1;fontFamily=Verdana;fontSize=13;fontColor=default;labelBackgroundColor=none;" edge="1" parent="WIyWlLk6GJQsqaUBKTNV-1" source="bkGXuq_RTNaCs4NR--fi-24" target="bkGXuq_RTNaCs4NR--fi-34">
          <mxGeometry relative="1" as="geometry" />
        </mxCell>
        <mxCell id="bkGXuq_RTNaCs4NR--fi-24" value="Generate a random word." style="rounded=1;whiteSpace=wrap;html=1;shadow=1;glass=0;sketch=1;jiggle=2;curveFitting=1;strokeColor=#82b366;strokeWidth=1;align=center;verticalAlign=middle;fontFamily=Verdana;fontSize=13;fontColor=default;labelBackgroundColor=none;fillColor=#d5e8d4;" vertex="1" parent="WIyWlLk6GJQsqaUBKTNV-1">
          <mxGeometry x="358" y="182" width="120" height="60" as="geometry" />
        </mxCell>
        <mxCell id="bkGXuq_RTNaCs4NR--fi-26" value="" style="endArrow=classic;html=1;rounded=0;fontFamily=Verdana;fontSize=13;fontColor=default;labelBackgroundColor=none;exitX=0.5;exitY=1;exitDx=0;exitDy=0;entryX=0.5;entryY=0;entryDx=0;entryDy=0;edgeStyle=orthogonalEdgeStyle;" edge="1" parent="WIyWlLk6GJQsqaUBKTNV-1" source="bkGXuq_RTNaCs4NR--fi-21" target="bkGXuq_RTNaCs4NR--fi-24">
          <mxGeometry relative="1" as="geometry">
            <mxPoint x="325" y="208" as="sourcePoint" />
            <mxPoint x="485" y="208" as="targetPoint" />
          </mxGeometry>
        </mxCell>
        <mxCell id="bkGXuq_RTNaCs4NR--fi-37" value="" style="edgeStyle=none;rounded=0;orthogonalLoop=1;jettySize=auto;html=1;fontFamily=Verdana;fontSize=13;fontColor=default;labelBackgroundColor=none;" edge="1" parent="WIyWlLk6GJQsqaUBKTNV-1" source="bkGXuq_RTNaCs4NR--fi-34" target="bkGXuq_RTNaCs4NR--fi-36">
          <mxGeometry relative="1" as="geometry" />
        </mxCell>
        <mxCell id="bkGXuq_RTNaCs4NR--fi-34" value="Generate blanks for the letters in the word." style="rounded=1;whiteSpace=wrap;html=1;fontSize=13;fontFamily=Verdana;fillColor=#d5e8d4;strokeColor=#82b366;shadow=1;glass=0;sketch=1;jiggle=2;curveFitting=1;strokeWidth=1;labelBackgroundColor=none;" vertex="1" parent="WIyWlLk6GJQsqaUBKTNV-1">
          <mxGeometry x="358" y="322" width="120" height="60" as="geometry" />
        </mxCell>
        <mxCell id="bkGXuq_RTNaCs4NR--fi-39" value="" style="edgeStyle=none;rounded=0;orthogonalLoop=1;jettySize=auto;html=1;fontFamily=Verdana;fontSize=13;fontColor=default;labelBackgroundColor=none;" edge="1" parent="WIyWlLk6GJQsqaUBKTNV-1" source="bkGXuq_RTNaCs4NR--fi-36" target="bkGXuq_RTNaCs4NR--fi-38">
          <mxGeometry relative="1" as="geometry" />
        </mxCell>
        <mxCell id="bkGXuq_RTNaCs4NR--fi-36" value="Ask the user to guess a letter in the word." style="rounded=1;whiteSpace=wrap;html=1;fontSize=13;fontFamily=Verdana;fillColor=#d5e8d4;strokeColor=#82b366;shadow=1;glass=0;sketch=1;jiggle=2;curveFitting=1;strokeWidth=1;labelBackgroundColor=none;" vertex="1" parent="WIyWlLk6GJQsqaUBKTNV-1">
          <mxGeometry x="130" y="462" width="572" height="60" as="geometry" />
        </mxCell>
        <mxCell id="bkGXuq_RTNaCs4NR--fi-43" value="" style="edgeStyle=none;rounded=0;orthogonalLoop=1;jettySize=auto;html=1;fontFamily=Verdana;fontSize=13;fontColor=default;labelBackgroundColor=none;" edge="1" parent="WIyWlLk6GJQsqaUBKTNV-1" source="bkGXuq_RTNaCs4NR--fi-38" target="bkGXuq_RTNaCs4NR--fi-42">
          <mxGeometry relative="1" as="geometry" />
        </mxCell>
        <mxCell id="bkGXuq_RTNaCs4NR--fi-45" value="" style="edgeStyle=none;rounded=0;orthogonalLoop=1;jettySize=auto;html=1;fontFamily=Verdana;fontSize=13;fontColor=default;labelBackgroundColor=none;" edge="1" parent="WIyWlLk6GJQsqaUBKTNV-1" source="bkGXuq_RTNaCs4NR--fi-38" target="bkGXuq_RTNaCs4NR--fi-44">
          <mxGeometry relative="1" as="geometry" />
        </mxCell>
        <mxCell id="bkGXuq_RTNaCs4NR--fi-38" value="&lt;div style=&quot;&quot;&gt;&lt;span style=&quot;background-color: initial;&quot;&gt;Is the guessed&lt;/span&gt;&lt;/div&gt;&lt;div style=&quot;&quot;&gt;&lt;span style=&quot;background-color: initial;&quot;&gt;&amp;nbsp;letter in the word ?&lt;/span&gt;&lt;/div&gt;" style="rhombus;whiteSpace=wrap;html=1;fontSize=13;fontFamily=Verdana;fillColor=#d5e8d4;strokeColor=#82b366;rounded=1;shadow=1;glass=0;sketch=1;jiggle=2;curveFitting=1;strokeWidth=1;labelBackgroundColor=none;align=center;" vertex="1" parent="WIyWlLk6GJQsqaUBKTNV-1">
          <mxGeometry x="338" y="592" width="156" height="136" as="geometry" />
        </mxCell>
        <mxCell id="bkGXuq_RTNaCs4NR--fi-51" value="" style="edgeStyle=none;rounded=0;orthogonalLoop=1;jettySize=auto;html=1;fontFamily=Verdana;fontSize=13;fontColor=default;labelBackgroundColor=none;" edge="1" parent="WIyWlLk6GJQsqaUBKTNV-1" source="bkGXuq_RTNaCs4NR--fi-42" target="bkGXuq_RTNaCs4NR--fi-50">
          <mxGeometry relative="1" as="geometry" />
        </mxCell>
        <mxCell id="bkGXuq_RTNaCs4NR--fi-42" value="Lose a Life." style="rounded=1;whiteSpace=wrap;html=1;fontSize=13;fontFamily=Verdana;fillColor=#d5e8d4;strokeColor=#82b366;shadow=1;glass=0;sketch=1;jiggle=2;curveFitting=1;strokeWidth=1;labelBackgroundColor=none;" vertex="1" parent="WIyWlLk6GJQsqaUBKTNV-1">
          <mxGeometry x="572" y="780" width="120" height="60" as="geometry" />
        </mxCell>
        <mxCell id="bkGXuq_RTNaCs4NR--fi-49" value="" style="edgeStyle=none;rounded=0;orthogonalLoop=1;jettySize=auto;html=1;fontFamily=Verdana;fontSize=13;fontColor=default;labelBackgroundColor=none;" edge="1" parent="WIyWlLk6GJQsqaUBKTNV-1" source="bkGXuq_RTNaCs4NR--fi-44" target="bkGXuq_RTNaCs4NR--fi-48">
          <mxGeometry relative="1" as="geometry" />
        </mxCell>
        <mxCell id="bkGXuq_RTNaCs4NR--fi-44" value="Replace the blank with the letter." style="rounded=1;whiteSpace=wrap;html=1;fontSize=13;fontFamily=Verdana;fillColor=#d5e8d4;strokeColor=#82b366;shadow=1;glass=0;sketch=1;jiggle=2;curveFitting=1;strokeWidth=1;labelBackgroundColor=none;" vertex="1" parent="WIyWlLk6GJQsqaUBKTNV-1">
          <mxGeometry x="143" y="780" width="120" height="60" as="geometry" />
        </mxCell>
        <mxCell id="bkGXuq_RTNaCs4NR--fi-46" value="Yes" style="text;html=1;align=center;verticalAlign=middle;whiteSpace=wrap;rounded=0;fontFamily=Verdana;fontSize=13;fontColor=default;labelBackgroundColor=none;" vertex="1" parent="WIyWlLk6GJQsqaUBKTNV-1">
          <mxGeometry x="273" y="702" width="60" height="30" as="geometry" />
        </mxCell>
        <mxCell id="bkGXuq_RTNaCs4NR--fi-47" value="No" style="text;html=1;align=center;verticalAlign=middle;whiteSpace=wrap;rounded=0;fontFamily=Verdana;fontSize=13;fontColor=default;labelBackgroundColor=none;" vertex="1" parent="WIyWlLk6GJQsqaUBKTNV-1">
          <mxGeometry x="512" y="702" width="60" height="30" as="geometry" />
        </mxCell>
        <mxCell id="bkGXuq_RTNaCs4NR--fi-48" value="Are all the&amp;nbsp;&lt;div&gt;blanks filled ?&lt;/div&gt;" style="rhombus;whiteSpace=wrap;html=1;fontSize=13;fontFamily=Verdana;fillColor=#d5e8d4;strokeColor=#82b366;rounded=1;shadow=1;glass=0;sketch=1;jiggle=2;curveFitting=1;strokeWidth=1;labelBackgroundColor=none;" vertex="1" parent="WIyWlLk6GJQsqaUBKTNV-1">
          <mxGeometry x="130" y="910" width="143" height="117" as="geometry" />
        </mxCell>
        <mxCell id="bkGXuq_RTNaCs4NR--fi-50" value="Is all the life&amp;nbsp;&lt;div&gt;points gone ?&lt;/div&gt;" style="rhombus;whiteSpace=wrap;html=1;fontSize=13;fontFamily=Verdana;fillColor=#d5e8d4;strokeColor=#82b366;rounded=1;shadow=1;glass=0;sketch=1;jiggle=2;curveFitting=1;strokeWidth=1;labelBackgroundColor=none;" vertex="1" parent="WIyWlLk6GJQsqaUBKTNV-1">
          <mxGeometry x="559" y="910" width="143" height="117" as="geometry" />
        </mxCell>
        <mxCell id="bkGXuq_RTNaCs4NR--fi-54" value="" style="strokeWidth=2;html=1;shape=mxgraph.flowchart.annotation_2;align=left;labelPosition=right;pointerEvents=1;rounded=1;shadow=1;glass=0;sketch=1;jiggle=2;curveFitting=1;strokeColor=#82b366;verticalAlign=middle;fontFamily=Verdana;fontSize=13;fontColor=default;labelBackgroundColor=none;fillColor=#d5e8d4;rotation=-90;" vertex="1" parent="WIyWlLk6GJQsqaUBKTNV-1">
          <mxGeometry x="354" y="873" width="128" height="428" as="geometry" />
        </mxCell>
        <mxCell id="bkGXuq_RTNaCs4NR--fi-55" value="" style="strokeWidth=2;html=1;shape=mxgraph.flowchart.annotation_1;align=left;pointerEvents=1;rounded=1;shadow=1;glass=0;sketch=1;jiggle=2;curveFitting=1;strokeColor=#82b366;verticalAlign=middle;fontFamily=Verdana;fontSize=13;fontColor=default;labelBackgroundColor=none;fillColor=#d5e8d4;" vertex="1" parent="WIyWlLk6GJQsqaUBKTNV-1">
          <mxGeometry x="80" y="494" width="52" height="477" as="geometry" />
        </mxCell>
        <mxCell id="bkGXuq_RTNaCs4NR--fi-56" value="" style="strokeWidth=2;html=1;shape=mxgraph.flowchart.annotation_1;align=left;pointerEvents=1;rounded=1;shadow=1;glass=0;sketch=1;jiggle=2;curveFitting=1;strokeColor=#82b366;verticalAlign=middle;fontFamily=Verdana;fontSize=13;fontColor=default;labelBackgroundColor=none;fillColor=#d5e8d4;rotation=-180;" vertex="1" parent="WIyWlLk6GJQsqaUBKTNV-1">
          <mxGeometry x="701" y="499" width="45" height="472" as="geometry" />
        </mxCell>
        <mxCell id="bkGXuq_RTNaCs4NR--fi-57" value="No" style="text;html=1;align=center;verticalAlign=middle;whiteSpace=wrap;rounded=0;fontFamily=Verdana;fontSize=13;fontColor=default;labelBackgroundColor=none;" vertex="1" parent="WIyWlLk6GJQsqaUBKTNV-1">
          <mxGeometry x="83" y="941" width="60" height="30" as="geometry" />
        </mxCell>
        <mxCell id="bkGXuq_RTNaCs4NR--fi-58" value="No" style="text;html=1;align=center;verticalAlign=middle;whiteSpace=wrap;rounded=0;fontFamily=Verdana;fontSize=13;fontColor=default;labelBackgroundColor=none;" vertex="1" parent="WIyWlLk6GJQsqaUBKTNV-1">
          <mxGeometry x="692" y="941" width="60" height="30" as="geometry" />
        </mxCell>
        <mxCell id="bkGXuq_RTNaCs4NR--fi-60" value="Yes" style="text;html=1;align=center;verticalAlign=middle;whiteSpace=wrap;rounded=0;fontFamily=Verdana;fontSize=13;fontColor=default;labelBackgroundColor=none;" vertex="1" parent="WIyWlLk6GJQsqaUBKTNV-1">
          <mxGeometry x="203" y="1040" width="60" height="30" as="geometry" />
        </mxCell>
        <mxCell id="bkGXuq_RTNaCs4NR--fi-61" value="Yes" style="text;html=1;align=center;verticalAlign=middle;whiteSpace=wrap;rounded=0;fontFamily=Verdana;fontSize=13;fontColor=default;labelBackgroundColor=none;" vertex="1" parent="WIyWlLk6GJQsqaUBKTNV-1">
          <mxGeometry x="572" y="1040" width="60" height="30" as="geometry" />
        </mxCell>
        <mxCell id="bkGXuq_RTNaCs4NR--fi-62" value="GAME OVER !!" style="rounded=1;whiteSpace=wrap;html=1;shadow=1;glass=0;sketch=1;jiggle=2;curveFitting=1;strokeColor=#82b366;strokeWidth=1;align=center;verticalAlign=middle;fontFamily=Verdana;fontSize=13;fontColor=default;labelBackgroundColor=none;fillColor=#d5e8d4;" vertex="1" parent="WIyWlLk6GJQsqaUBKTNV-1">
          <mxGeometry x="358" y="1152" width="120" height="60" as="geometry" />
        </mxCell>
      </root>
    </mxGraphModel>
  </diagram>
</mxfile>
